#!OML:ASF F:\VICON\USERDATA\INSTALL\rory3\rory3.ASF
:FULLY-SPECIFIED
:DEGREES
470
root 3.3858 17.853 9.79888 -0.863179 11.3812 0.187239
lowerback 10.7378 0.0569302 -3.02925
upperback 1.55216 -0.211501 1.19325
thorax -4.3847 -0.0458963 2.98511
lowerneck -6.61003 -9.14875 -13.2577
upperneck 39.0238 -14.7618 9.91745
head 17.2686 -6.9341 4.29389
rclavicle 1.86361e-015 -4.57205e-015
rhumerus -34.3984 -15.36 -72.7055
rradius 40.3918
rwrist -2.35446
rhand -22.9723 8.02538
rfingers 7.12502
rthumb 3.46988 -21.9261
lclavicle 1.86361e-015 -4.57205e-015
lhumerus -35.5108 3.64078 85.4405
lradius 39.0624
lwrist -3.75034
lhand -19.6343 24.6035
lfingers 7.12502
lthumb 6.69287 54.4777
rfemur -13.6309 -1.1927 21.0084
rtibia 37.3743
rfoot -15.5482 3.30772
rtoes 0.542003
lfemur -10.3374 -0.808945 -23.9357
ltibia 29.7937
lfoot -13.3035 -9.54996
ltoes 1.60225
471
root 3.34629 17.8563 9.81128 -0.794808 11.1872 0.218166
lowerback 10.6568 -0.055027 -3.26613
upperback 1.55495 -0.383914 1.22045
thorax -4.32214 -0.128604 3.17136
lowerneck -6.57707 -9.11236 -13.2062
upperneck 38.9843 -14.79 10.062
head 17.255 -6.9284 4.3463
rclavicle -2.40529e-014 9.74045e-015
rhumerus -34.3108 -15.8154 -72.6024
rradius 40.4511
rwrist -2.27774
rhand -22.9523 8.14376
rfingers 7.12502
rthumb 3.48912 -21.8074
lclavicle -2.40529e-014 9.74045e-015
lhumerus -35.612 3.24226 85.6221
lradius 39.2906
lwrist -3.76756
lhand -19.5021 25.1251
lfingers 7.12502
lthumb 6.8205 54.9953
rfemur -13.8177 -1.19081 21.0667
rtibia 37.5994
rfoot -15.4687 3.61488
rtoes 1.10266
lfemur -10.3122 -0.689532 -24.0553
ltibia 29.7788
lfoot -12.9805 -7.06099
ltoes -0.14555
472
root 3.30199 17.859 9.81417 -0.658238 11.0535 0.093509
lowerback 10.719 -0.168031 -3.37844
upperback 1.45172 -0.547504 1.27495
thorax -4.45024 -0.203222 3.31716
lowerneck -6.33235 -9.09113 -13.0575
upperneck 38.7196 -14.8451 10.1824
head 17.0499 -6.93182 4.36426
rclavicle -1.46604e-015 -1.0138e-014
rhumerus -34.2589 -16.2347 -72.517
rradius 40.3866
rwrist -2.26016
rhand -23.047 8.47372
rfingers 7.12502
rthumb 3.39776 -21.479
lclavicle -1.46604e-015 -1.0138e-014
lhumerus -35.8015 2.77483 85.7953
lradius 39.4818
lwrist -3.70602
lhand -19.4638 25.159
lfingers 7.12502
lthumb 6.85741 55.0279
rfemur -14.1753 -1.23962 21.3288
rtibia 37.8321
rfoot -15.2951 3.78351
rtoes 1.48214
lfemur -10.4092 -0.629229 -23.9176
ltibia 29.7934
lfoot -12.5162 -6.41657
ltoes 0.918973
473
root 3.25559 17.8611 9.81857 -0.622894 10.8994 -0.154093
lowerback 10.8468 -0.306337 -3.4238
upperback 1.40976 -0.736599 1.36431
thorax -4.54797 -0.292523 3.46634
lowerneck -6.16331 -9.0914 -12.9734
upperneck 38.493 -14.9447 10.3698
head 16.9126 -6.95385 4.41353
rclavicle 2.47735e-014 -9.34288e-015
rhumerus -34.1348 -16.6802 -72.5073
rradius 40.287
rwrist -2.14106
rhand -23.0203 8.77984
rfingers 7.12502
rthumb 3.42349 -21.1724
lclavicle 2.47735e-014 -9.34288e-015
lhumerus -35.6897 2.55493 85.8553
lradius 39.3895
lwrist -3.60675
lhand -19.5125 24.959
lfingers 7.12502
lthumb 6.81039 54.8295
rfemur -14.4704 -1.24604 21.737
rtibia 38.0813
rfoot -15.1466 3.88299
rtoes 1.34562
lfemur -10.435 -0.617181 -23.5813
ltibia 29.8176
lfoot -12.2315 -6.8638
ltoes 3.29579
474
root 3.2142 17.862 9.82978 -0.547784 10.7805 -0.264344
lowerback 10.8222 -0.458519 -3.5853
upperback 1.40028 -0.954275 1.42181
thorax -4.52204 -0.397436 3.64916
lowerneck -6.17477 -9.10531 -12.9251
upperneck 38.4576 -15.0464 10.5112
head 16.9276 -6.97878 4.44766
rclavicle -1.27968e-014 -1.68967e-015
rhumerus -34.0556 -17.1305 -72.5184
rradius 40.2563
rwrist -1.94117
rhand -23.1115 8.81991
rfingers 7.12502
rthumb 3.33544 -21.1337
lclavicle -1.27968e-014 -1.68967e-015
lhumerus -35.3107 2.37455 85.8767
lradius 38.9441
lwrist -3.59658
lhand -19.9095 24.4851
lfingers 7.12502
lthumb 6.42718 54.3676
rfemur -14.7809 -1.47383 21.9464
rtibia 38.3858
rfoot -15.224 4.23993
rtoes 0.666963
lfemur -10.4343 -0.673896 -23.3657
ltibia 29.7775
lfoot -12.3484 -6.95654
ltoes 3.315
475
root 3.17334 17.8577 9.83781 -0.413526 10.7195 -0.302528
lowerback 10.8075 -0.597444 -3.80075
upperback 1.34232 -1.16189 1.47375
thorax -4.55076 -0.494386 3.85611
lowerneck -6.26096 -9.13457 -12.798
upperneck 38.5148 -15.1201 10.4739
head 16.975 -6.99571 4.39175
rclavicle 6.44808e-015 3.08116e-015
rhumerus -34.0548 -17.5966 -72.4425
rradius 40.2529
rwrist -1.76776
rhand -23.1725 8.75501
rfingers 7.12502
rthumb 3.27652 -21.1996
lclavicle 6.44808e-015 3.08116e-015
lhumerus -35.1534 1.98257 85.9988
lradius 38.7
lwrist -3.43883
lhand -20.3209 24.5335
lfingers 7.12502
lthumb 6.02999 54.4277
rfemur -15.1577 -1.85007 22.0524
rtibia 38.7515
rfoot -15.5293 4.67575
rtoes -0.196035
lfemur -10.4833 -0.768758 -23.1843
ltibia 29.6493
lfoot -12.6361 -6.28785
ltoes 0.900358
476
root 3.13034 17.8527 9.84217 -0.272621 10.6156 -0.278443
lowerback 10.8564 -0.694638 -4.09833
upperback 1.25846 -1.32744 1.51034
thorax -4.64274 -0.566804 4.08989
lowerneck -6.24293 -9.16742 -12.7146
upperneck 38.531 -15.2137 10.485
head 16.9889 -7.02622 4.36472
rclavicle 8.21229e-015 2.18663e-015
rhumerus -34.154 -18.2109 -72.3032
rradius 40.2801
rwrist -1.54724
rhand -23.1335 8.41185
rfingers 7.12502
rthumb 3.31413 -21.5421
lclavicle 8.21229e-015 2.18663e-015
lhumerus -35.3675 1.54772 86.0908
lradius 38.911
lwrist -3.2377
lhand -20.282 25.0287
lfingers 7.12502
lthumb 6.0676 54.9218
rfemur -15.598 -2.17857 22.0761
rtibia 39.184
rfoot -15.9044 5.16406
rtoes -0.872567
lfemur -10.5666 -0.711045 -23.0058
ltibia 29.4598
lfoot -12.9356 -5.82285
ltoes -1.76158
477
root 3.08535 17.8453 9.84684 -0.210106 10.5016 -0.350533
lowerback 10.9417 -0.811309 -4.32612
upperback 1.22154 -1.5106 1.56996
thorax -4.70316 -0.650279 4.31148
lowerneck -6.24713 -9.18513 -12.7125
upperneck 38.4228 -15.3249 10.6855
head 16.977 -7.05551 4.42924
rclavicle -2.25496e-014 -1.15295e-014
rhumerus -34.1987 -18.6608 -72.286
rradius 40.2814
rwrist -1.48428
rhand -23.336 7.87428
rfingers 7.12502
rthumb 3.11859 -22.0827
lclavicle -2.25496e-014 -1.15295e-014
lhumerus -35.4704 1.43335 86.0478
lradius 39.0462
lwrist -3.23079
lhand -19.926 25.8065
lfingers 7.12502
lthumb 6.41122 55.6895
rfemur -16.0189 -2.582 22.1865
rtibia 39.6595
rfoot -16.3704 5.89869
rtoes -1.6793
lfemur -10.617 -0.506663 -22.685
ltibia 29.2776
lfoot -13.2191 -6.28569
ltoes -1.99303
478
root 3.03906 17.8343 9.8488 -0.165811 10.3832 -0.496933
lowerback 11.0652 -0.931485 -4.47535
upperback 1.19021 -1.69029 1.64014
thorax -4.77952 -0.732781 4.50085
lowerneck -6.32146 -9.22022 -12.7212
upperneck 38.2813 -15.447 10.8805
head 16.9671 -7.08878 4.48569
rclavicle -2.54693e-015 -1.27222e-014
rhumerus -34.2159 -19.0048 -72.3591
rradius 40.2907
rwrist -1.52815
rhand -23.6281 7.5431
rfingers 7.12502
rthumb 2.83649 -22.4178
lclavicle -2.54693e-015 -1.27222e-014
lhumerus -35.3954 1.26086 85.9982
lradius 38.9568
lwrist -3.08703
lhand -19.978 26.0076
lfingers 7.12502
lthumb 6.3611 55.8921
rfemur -16.418 -3.00045 22.3849
rtibia 40.1597
rfoot -16.9945 6.57618
rtoes -3.70057
lfemur -10.6692 -0.276664 -22.2811
ltibia 29.1206
lfoot -13.3407 -7.12778
ltoes -0.330978
479
root 2.99215 17.8245 9.84846 -0.0350252 10.3265 -0.451083
lowerback 11.1391 -1.03886 -4.78043
upperback 1.14901 -1.87529 1.61972
thorax -4.8347 -0.815866 4.68283
lowerneck -6.34578 -9.27313 -12.6777
upperneck 38.2181 -15.6263 11.0836
head 16.9958 -7.13921 4.53181
rclavicle 8.5788e-015 1.43125e-014
rhumerus -34.2799 -19.5885 -72.4121
rradius 40.2762
rwrist -1.37523
rhand -23.4437 7.36621
rfingers 7.12502
rthumb 3.01463 -22.5922
lclavicle 8.5788e-015 1.43125e-014
lhumerus -35.3691 1.08024 85.8681
lradius 38.8655
lwrist -2.95276
lhand -20.4241 25.6114
lfingers 7.12502
lthumb 5.93041 55.5084
rfemur -16.8563 -3.42226 22.3581
rtibia 40.6496
rfoot -17.6889 6.96753
rtoes -6.86979
lfemur -10.818 0.10699 -22.1038
ltibia 29.0351
lfoot -13.461 -7.70642
ltoes 0.381965
480
root 2.94804 17.8141 9.84885 0.143884 10.3171 -0.354854
lowerback 11.1499 -1.14445 -5.07998
upperback 1.06855 -2.05621 1.58937
thorax -4.89547 -0.895828 4.84939
lowerneck -6.23395 -9.33025 -12.7439
upperneck 38.177 -15.8232 11.3336
head 17.0276 -7.21341 4.62252
rclavicle -2.79541e-015 -1.98288e-014
rhumerus -34.4812 -20.1536 -72.3575
rradius 40.2402
rwrist -1.08388
rhand -23.2054 7.63232
rfingers 7.12502
rthumb 3.2447 -22.3227
lclavicle -2.79541e-015 -1.98288e-014
lhumerus -35.4358 0.854788 85.7578
lradius 38.8799
lwrist -2.89645
lhand -20.3855 25.6965
lfingers 7.12502
lthumb 5.96766 55.5925
rfemur -17.3081 -4.0433 22.2282
rtibia 41.1259
rfoot -18.4703 7.51441
rtoes -9.6904
lfemur -11.0039 0.637704 -22.0352
ltibia 29.0044
lfoot -13.7352 -7.95684
ltoes -0.896617
